<?xml version="1.0" encoding="iso-8859-1"?>
<!-- Generator: Adobe Illustrator 19.0.0, SVG Export Plug-In . SVG Version: 6.00 Build 0)  -->
<svg version="1.1" id="Layer_1" xmlns="http://www.w3.org/2000/svg" xmlns:xlink="http://www.w3.org/1999/xlink" x="0px" y="0px"
	 viewBox="0 0 495 495" style="enable-background:new 0 0 495 495;" xml:space="preserve">
<g>
	<polygon style="fill:#5EAC24;" points="247.5,0 247.5,40 455,40 455,455 247.5,455 247.5,495 495,495 495,0 	"/>
	<polygon style="fill:#7ED63E;" points="40,455 40,40 247.5,40 247.5,0 0,0 0,495 247.5,495 247.5,455 	"/>
	<path style="fill:#7ED63E;" d="M165.202,405c28.821,0,52.183-23.365,52.183-52.197v-59.228l71.26,91.334
		c17.728,22.724,50.518,26.772,73.242,9.043c22.733-17.731,26.78-50.52,9.052-73.245l-62.206-79.737l48.446-65.082
		c17.201-23.134,12.402-55.824-10.717-73.033c-23.119-17.2-55.813-12.405-73.022,10.717l-56.055,75.314v-46.693
		c0-28.832-23.362-52.194-52.183-52.194c-28.821,0-52.183,23.362-52.183,52.194v210.609C113.019,381.635,136.381,405,165.202,405z"
		/>
</g>
<g>
</g>
<g>
</g>
<g>
</g>
<g>
</g>
<g>
</g>
<g>
</g>
<g>
</g>
<g>
</g>
<g>
</g>
<g>
</g>
<g>
</g>
<g>
</g>
<g>
</g>
<g>
</g>
<g>
</g>
</svg>
