<?xml version="1.0" standalone="no"?>
<!DOCTYPE svg PUBLIC "-//W3C//DTD SVG 20010904//EN"
 "http://www.w3.org/TR/2001/REC-SVG-20010904/DTD/svg10.dtd">
<svg version="1.0" xmlns="http://www.w3.org/2000/svg"
 width="240.000000pt" height="240.000000pt" viewBox="0 0 240.000000 240.000000"
 preserveAspectRatio="xMidYMid meet">
<metadata>
Created by potrace 1.15, written by Peter Selinger 2001-2017
</metadata>
<g transform="translate(0.000000,240.000000) scale(0.100000,-0.100000)"
fill="#000000" stroke="none">
<path d="M1065 2394 c-92 -14 -198 -39 -260 -61 -398 -143 -691 -479 -781
-893 -26 -118 -26 -362 0 -480 102 -472 464 -834 936 -936 118 -26 362 -26
480 0 472 102 834 464 936 936 26 118 26 362 0 480 -100 465 -456 826 -916
931 -83 19 -327 33 -395 23z m299 -209 c543 -95 914 -614 821 -1149 -95 -543
-614 -914 -1149 -821 -543 95 -914 614 -821 1149 95 543 614 914 1149 821z"/>
<path d="M778 1579 c-43 -22 -78 -81 -78 -129 0 -76 74 -150 150 -150 76 0
150 74 150 150 0 50 -35 107 -80 130 -49 25 -94 25 -142 -1z"/>
<path d="M1478 1579 c-43 -22 -78 -81 -78 -129 0 -50 35 -107 80 -130 21 -11
53 -20 70 -20 76 0 150 74 150 150 0 50 -35 107 -80 130 -49 25 -94 25 -142
-1z"/>
<path d="M623 978 l-22 -21 29 -41 c35 -52 150 -162 213 -205 99 -67 240 -111
357 -111 117 0 258 44 357 111 63 43 178 153 214 205 l28 41 -24 23 -24 23
-58 -39 c-180 -120 -373 -168 -581 -145 -166 18 -270 55 -403 144 -31 20 -58
37 -60 37 -3 0 -14 -10 -26 -22z"/>
</g>
</svg>
