<?xml version="1.0" standalone="no"?>
<!DOCTYPE svg PUBLIC "-//W3C//DTD SVG 20010904//EN"
 "http://www.w3.org/TR/2001/REC-SVG-20010904/DTD/svg10.dtd">
<svg version="1.0" xmlns="http://www.w3.org/2000/svg"
 width="240.000000pt" height="240.000000pt" viewBox="0 0 240.000000 240.000000"
 preserveAspectRatio="xMidYMid meet">
<metadata>
Created by potrace 1.15, written by Peter Selinger 2001-2017
</metadata>
<g transform="translate(0.000000,240.000000) scale(0.100000,-0.100000)"
fill="#000000" stroke="none">
<path d="M1045 2289 c-325 -28 -618 -119 -708 -218 l-37 -41 0 -166 0 -166
-49 -57 c-70 -81 -109 -147 -133 -225 -81 -267 147 -476 476 -436 169 20 358
100 521 220 l80 58 5 -76 c6 -93 27 -135 80 -162 50 -25 90 -25 140 0 62 31
80 77 80 199 0 111 11 146 51 167 35 18 63 18 98 0 45 -24 51 -52 51 -237 0
-186 7 -215 55 -237 34 -16 60 -15 94 2 47 25 51 49 51 287 0 239 5 264 55
287 52 24 114 4 134 -45 8 -20 11 -161 9 -503 l-3 -475 -50 -27 c-241 -133
-789 -177 -1190 -97 -125 25 -268 72 -317 105 l-38 24 -2 203 -3 202 -68 7
c-38 3 -82 11 -98 17 l-30 10 3 -244 3 -243 30 -44 c85 -120 290 -206 605
-255 163 -25 559 -25 720 0 316 49 520 135 605 255 l30 44 3 804 2 804 -37 41
c-144 159 -712 261 -1218 218z m535 -184 c476 -51 625 -159 315 -228 -361 -81
-1082 -61 -1285 36 -237 114 445 249 970 192z m-940 -418 c30 -9 120 -27 200
-41 180 -32 205 -39 261 -75 47 -29 81 -84 92 -146 5 -28 -1 -35 -74 -95 -185
-152 -367 -235 -556 -255 l-63 -7 0 336 0 335 43 -18 c23 -10 67 -25 97 -34z
m-340 -354 l0 -207 -31 30 c-65 60 -85 155 -54 245 14 40 72 139 81 139 2 0 4
-93 4 -207z"/>
</g>
</svg>
