<?xml version="1.0" standalone="no"?>
<!DOCTYPE svg PUBLIC "-//W3C//DTD SVG 20010904//EN"
 "http://www.w3.org/TR/2001/REC-SVG-20010904/DTD/svg10.dtd">
<svg version="1.0" xmlns="http://www.w3.org/2000/svg"
 width="1024.000000pt" height="1024.000000pt" viewBox="0 0 1024.000000 1024.000000"
 preserveAspectRatio="xMidYMid meet">
<metadata>
Created by potrace 1.15, written by Peter Selinger 2001-2017
</metadata>
<g transform="translate(0.000000,1024.000000) scale(0.100000,-0.100000)"
fill="#000000" stroke="none">
<path d="M4525 10196 c-48 -21 -114 -101 -154 -189 -49 -105 -87 -156 -146
-195 -68 -45 -138 -57 -216 -37 -75 19 -115 42 -194 113 -85 77 -146 106 -221
106 -115 2 -179 -70 -221 -246 -27 -116 -51 -168 -102 -221 -61 -65 -103 -82
-202 -82 -85 0 -86 0 -210 63 -148 75 -208 87 -281 54 -47 -20 -88 -65 -108
-117 -7 -17 -16 -91 -20 -166 -8 -148 -26 -208 -84 -276 -75 -89 -218 -111
-376 -59 -119 39 -204 39 -267 0 -90 -56 -115 -160 -77 -326 33 -143 3 -262
-84 -339 -63 -55 -127 -74 -237 -69 -214 9 -280 -4 -334 -66 -62 -70 -63 -179
-3 -307 76 -164 67 -298 -29 -395 -58 -59 -128 -86 -262 -101 -175 -20 -267
-92 -267 -210 0 -65 28 -138 78 -205 77 -102 96 -151 97 -246 0 -65 -5 -94
-20 -125 -39 -79 -130 -147 -235 -175 -106 -29 -205 -100 -231 -167 -16 -42
-10 -106 15 -159 15 -33 55 -82 114 -140 65 -64 99 -106 117 -146 64 -140 13
-289 -128 -378 -176 -110 -221 -156 -233 -237 -14 -98 48 -188 185 -267 87
-50 154 -117 183 -183 17 -38 20 -61 16 -123 -6 -100 -33 -147 -148 -260 -95
-94 -130 -152 -130 -220 0 -102 71 -176 214 -225 107 -37 149 -59 197 -102 57
-52 81 -105 87 -188 5 -87 -19 -157 -85 -247 -65 -88 -93 -153 -93 -216 0
-133 83 -197 288 -222 153 -20 234 -65 286 -160 21 -38 30 -72 34 -119 4 -69
6 -64 -72 -276 -28 -77 -32 -124 -14 -176 17 -53 46 -87 91 -112 39 -20 55
-22 217 -22 l175 0 67 -33 c134 -66 186 -202 143 -377 -32 -134 -13 -248 51
-306 64 -58 143 -63 300 -18 180 52 285 33 372 -66 57 -65 73 -118 81 -271 9
-159 32 -221 103 -267 40 -26 49 -28 118 -24 68 3 85 9 181 59 126 67 196 84
273 68 125 -26 201 -114 243 -283 48 -197 109 -267 231 -267 64 0 133 35 216
109 163 144 317 160 445 45 38 -35 63 -72 106 -157 62 -123 99 -170 160 -198
102 -47 208 3 311 147 52 72 97 115 157 146 33 18 58 23 122 23 125 0 186 -41
312 -207 80 -105 179 -147 268 -114 62 24 118 90 172 203 50 105 109 174 178
208 30 15 60 20 120 20 98 -1 149 -24 252 -115 90 -80 151 -110 223 -110 114
0 189 86 225 259 20 98 44 150 95 204 105 115 227 121 422 19 158 -81 255 -85
327 -13 53 53 71 113 75 252 5 144 28 212 95 279 87 87 198 102 367 49 171
-53 283 -28 333 73 33 70 36 121 11 248 -19 99 -20 121 -10 174 21 109 71 175
165 218 46 21 61 23 205 20 93 -1 172 2 197 9 55 15 118 70 134 116 20 60 7
157 -34 250 -47 107 -61 183 -46 254 29 139 133 217 319 240 123 14 189 40
233 88 81 90 70 200 -34 339 -69 91 -94 156 -94 242 1 64 5 83 30 129 41 75
119 131 239 171 157 52 230 123 230 224 0 74 -30 125 -140 237 -100 102 -131
154 -141 237 -12 107 52 225 161 292 119 74 161 107 189 146 86 123 36 243
-147 354 -145 87 -200 168 -201 290 0 65 4 83 30 130 17 31 68 93 116 140 119
117 155 195 129 277 -29 87 -91 135 -237 184 -115 38 -184 89 -228 169 -25 47
-30 66 -29 125 0 82 26 147 99 249 46 65 85 156 85 198 0 121 -93 197 -266
218 -117 14 -179 34 -236 75 -121 89 -143 237 -61 419 33 73 37 90 37 167 1
76 -2 90 -26 126 -48 72 -146 100 -303 85 -212 -20 -342 61 -374 235 -9 47 -5
94 20 240 17 97 1 169 -48 224 -67 74 -174 83 -328 28 -75 -28 -201 -30 -258
-5 -55 24 -115 82 -144 140 -22 44 -27 71 -34 185 -11 180 -33 241 -106 291
-71 48 -170 37 -294 -35 -168 -96 -295 -100 -405 -10 -54 45 -96 130 -124 251
-24 103 -59 167 -115 210 -32 24 -47 29 -99 29 -78 0 -131 -25 -222 -107 -93
-83 -176 -121 -263 -122 -125 -1 -220 74 -292 231 -69 150 -138 213 -235 213
-88 0 -152 -47 -261 -193 -81 -107 -198 -160 -305 -137 -95 20 -159 72 -265
213 -75 100 -188 142 -278 103z m1065 -1070 c1148 -135 2156 -705 2848 -1614
472 -620 748 -1334 822 -2127 15 -166 13 -566 -5 -745 -79 -793 -380 -1532
-878 -2155 -641 -802 -1542 -1333 -2556 -1505 -348 -59 -799 -71 -1141 -31
-926 109 -1746 493 -2410 1128 -125 120 -255 261 -248 269 6 6 568 29 718 29
159 0 450 -39 515 -69 27 -12 94 -63 148 -112 115 -103 412 -322 542 -399 203
-120 306 -147 820 -220 411 -59 594 -76 805 -78 245 -1 311 11 449 79 78 38
110 62 182 133 71 71 94 101 127 171 42 88 62 163 62 230 0 37 3 41 43 61 115
58 241 173 315 288 90 138 140 315 128 452 l-6 77 47 35 c65 47 150 138 202
215 113 167 166 377 141 556 l-11 81 68 70 c112 114 173 247 193 421 20 180
-28 398 -120 538 -147 224 -382 339 -862 421 -81 14 -212 40 -290 59 -368 88
-498 158 -570 303 -30 61 -32 71 -31 171 0 148 20 231 133 572 129 386 135
415 134 660 -1 215 -14 305 -74 490 -102 314 -304 576 -555 720 -128 73 -332
109 -467 81 -136 -29 -262 -129 -323 -256 -68 -144 -75 -212 -65 -670 4 -220
-7 -310 -56 -466 -57 -181 -174 -404 -316 -604 -78 -110 -424 -546 -563 -710
-120 -141 -244 -262 -306 -298 -42 -25 -142 -55 -294 -91 -58 -13 -90 -14
-190 -6 -74 6 -420 7 -904 3 l-784 -6 7 84 c81 977 501 1884 1191 2573 333
332 670 574 1095 786 486 243 1004 381 1585 424 117 9 578 -3 705 -18z m-550
-1177 c112 -57 246 -201 318 -344 87 -175 127 -361 119 -553 -6 -150 -28 -246
-117 -507 -107 -317 -132 -416 -150 -588 -26 -260 53 -488 232 -667 86 -85
159 -137 271 -190 117 -56 230 -86 497 -131 376 -64 526 -106 668 -185 197
-110 266 -288 180 -462 -25 -49 -86 -96 -142 -107 -56 -12 -114 -53 -143 -102
-22 -38 -27 -59 -27 -114 0 -59 5 -77 39 -144 39 -75 40 -80 40 -179 0 -93 -3
-106 -31 -166 -51 -105 -134 -176 -248 -212 -75 -23 -110 -49 -143 -105 -38
-66 -36 -138 7 -218 30 -56 32 -65 27 -130 -7 -87 -27 -144 -74 -213 -47 -68
-92 -92 -175 -92 -82 0 -128 -14 -180 -53 -74 -56 -96 -134 -63 -227 35 -98 9
-225 -55 -270 -65 -47 -275 -69 -485 -51 -411 35 -701 76 -975 137 -184 42
-213 51 -280 91 -108 63 -366 259 -495 375 -86 78 -129 108 -200 142 -131 63
-175 74 -327 85 -88 7 -159 18 -200 31 -291 97 -378 372 -365 1159 7 415 24
542 99 704 54 118 119 155 338 197 245 47 418 132 570 281 179 176 535 608
720 874 387 556 487 752 541 1060 18 109 20 152 17 475 -3 321 -1 358 14 387
10 17 23 33 30 36 34 14 89 5 148 -24z"/>
</g>
</svg>
