<?xml version="1.0" standalone="no"?>
<!DOCTYPE svg PUBLIC "-//W3C//DTD SVG 20010904//EN"
 "http://www.w3.org/TR/2001/REC-SVG-20010904/DTD/svg10.dtd">
<svg version="1.0" xmlns="http://www.w3.org/2000/svg"
 width="512.000000pt" height="512.000000pt" viewBox="0 0 512.000000 512.000000"
 preserveAspectRatio="xMidYMid meet">
<metadata>
Created by potrace 1.15, written by Peter Selinger 2001-2017
</metadata>
<g transform="translate(0.000000,512.000000) scale(0.100000,-0.100000)"
fill="#000000" stroke="none">
<path d="M225 4477 c-16 -16 -24 -26 -18 -22 12 6 12 -8 -2 -77 -1 -9 4 -25
12 -35 13 -17 13 -16 3 5 -19 38 -3 24 25 -23 14 -25 23 -49 20 -54 -3 -5 0
-13 6 -17 8 -5 10 -2 5 7 -4 8 0 5 8 -6 9 -11 14 -25 12 -32 -3 -7 0 -15 6
-19 7 -5 8 -2 4 7 -4 8 0 5 9 -6 9 -11 21 -29 26 -40 8 -15 4 -13 -11 5 -22
25 -22 24 1 -15 24 -44 49 -74 30 -37 -19 36 -5 25 19 -15 17 -29 18 -34 4
-22 -16 13 -16 12 -4 -8 8 -12 18 -21 22 -20 4 1 19 -18 34 -43 21 -37 22 -41
4 -20 -25 30 -12 -3 15 -35 9 -11 13 -14 9 -6 -5 10 -3 12 5 7 7 -5 10 -15 7
-23 -3 -8 -2 -12 3 -9 11 7 64 -81 56 -93 -3 -5 0 -13 6 -17 8 -5 9 -3 4 6 -6
9 -4 11 4 6 7 -5 10 -15 7 -23 -3 -8 -2 -12 3 -9 11 7 94 -131 86 -143 -3 -5
0 -13 6 -17 8 -5 9 -3 4 6 -6 9 -4 11 4 6 7 -5 10 -15 7 -23 -3 -8 -2 -12 3
-9 5 3 32 -33 60 -81 29 -47 44 -80 35 -72 -16 13 -16 12 -4 -8 8 -12 18 -21
22 -20 4 1 19 -18 34 -43 22 -38 22 -41 4 -20 -22 25 -22 25 1 -15 26 -47 47
-71 30 -35 -12 24 -12 24 4 5 9 -11 21 -29 27 -40 10 -18 10 -19 -7 -5 -17 14
-17 14 -5 -7 8 -12 18 -19 24 -16 5 4 7 -1 3 -10 -3 -9 -1 -19 5 -23 7 -5 8
-2 4 7 -19 37 31 -35 75 -108 28 -46 48 -87 44 -92 -3 -5 0 -13 6 -17 8 -5 9
-3 4 6 -6 9 -4 11 4 6 7 -5 10 -15 7 -23 -3 -8 -2 -12 3 -9 11 7 94 -131 86
-143 -3 -5 0 -13 6 -17 8 -5 9 -3 4 6 -6 9 -4 11 4 6 7 -5 10 -14 7 -22 -3 -8
-1 -13 4 -11 6 1 21 -18 36 -43 22 -38 22 -41 4 -20 -22 25 -22 25 1 -15 26
-47 47 -71 30 -35 -12 24 -12 24 4 5 9 -11 21 -29 27 -40 10 -18 10 -19 -6 -6
-14 12 -13 7 4 -22 12 -20 24 -37 27 -37 2 0 1 5 -2 10 -3 6 -4 10 -2 10 12 0
68 -100 62 -110 -4 -6 -2 -9 4 -8 6 2 22 -17 37 -42 21 -37 22 -41 4 -20 -25
30 -12 -3 15 -35 9 -11 13 -14 9 -6 -5 10 -3 12 5 7 7 -5 10 -15 7 -23 -3 -8
-2 -12 3 -9 11 7 94 -131 86 -143 -3 -5 0 -13 6 -17 8 -5 9 -3 4 6 -6 9 -4 11
4 6 7 -5 10 -14 7 -22 -3 -8 -1 -13 4 -11 6 1 21 -18 36 -43 22 -38 22 -41 4
-20 -22 25 -22 25 1 -15 26 -47 47 -71 30 -35 -12 24 -12 24 4 5 9 -11 21 -29
27 -40 10 -18 10 -19 -6 -6 -14 12 -13 7 4 -22 12 -20 24 -37 27 -37 2 0 1 5
-2 10 -3 6 -4 10 -2 10 10 0 61 -87 60 -102 -1 -10 2 -17 8 -15 5 1 20 -18 35
-43 21 -37 22 -41 4 -20 -25 30 -12 -3 15 -35 9 -11 13 -14 9 -6 -5 10 -3 12
5 7 7 -5 10 -15 7 -23 -3 -8 -2 -12 3 -9 11 7 94 -131 86 -143 -3 -5 0 -13 6
-17 8 -5 10 -2 5 7 -4 8 0 5 8 -6 9 -11 14 -25 12 -32 -3 -7 0 -15 6 -19 7 -4
8 -3 4 4 -4 7 -5 12 -2 12 2 0 26 -35 51 -77 26 -43 40 -71 30 -63 -12 10 -11
4 5 -23 12 -20 24 -37 27 -37 2 0 1 5 -2 10 -3 6 -4 10 -1 10 10 0 61 -95 58
-109 -2 -7 1 -10 6 -7 12 7 65 -80 57 -93 -3 -5 0 -13 6 -17 8 -5 9 -3 4 6 -6
9 -4 11 4 6 7 -5 10 -15 7 -23 -3 -8 -2 -12 3 -9 11 7 94 -131 86 -143 -3 -5
0 -13 6 -17 8 -5 10 -2 5 7 -4 8 0 5 8 -6 9 -11 14 -25 12 -32 -3 -7 0 -15 6
-19 7 -4 8 -3 4 4 -4 7 -5 12 -2 12 2 0 26 -35 51 -77 26 -43 40 -71 30 -63
-12 10 -11 4 5 -23 24 -40 38 -51 19 -15 -19 37 6 7 30 -37 22 -38 22 -39 2
-15 l-22 25 18 -37 c10 -21 22 -38 26 -38 5 0 5 5 1 12 -4 7 -3 8 4 4 7 -4 12
-13 12 -20 0 -19 37 -49 52 -43 9 4 7 6 -4 6 -9 1 -20 5 -23 11 -7 11 23 2 43
-13 8 -6 12 -6 12 1 0 5 10 12 23 15 21 6 21 6 3 -8 -27 -20 -6 -19 22 1 12 8
20 19 17 24 -7 12 65 131 76 124 5 -3 6 1 3 9 -3 8 0 18 7 23 8 5 10 3 4 -6
-5 -9 -4 -11 4 -6 6 4 9 12 6 17 -8 12 75 150 86 143 5 -3 6 1 3 9 -3 8 0 18
7 23 8 5 10 3 4 -6 -5 -9 -4 -11 4 -6 6 4 9 12 6 17 -8 12 75 150 86 143 5 -3
6 1 3 9 -3 8 0 18 7 23 8 5 10 3 4 -6 -5 -9 -4 -11 4 -6 6 4 9 12 6 17 -8 12
45 100 56 93 5 -3 6 1 3 9 -3 8 0 18 7 23 8 5 10 3 4 -6 -5 -9 -4 -11 4 -6 6
4 9 12 6 17 -8 12 45 100 56 93 5 -3 6 1 3 9 -3 8 0 18 7 23 8 5 10 3 4 -6 -5
-9 -4 -11 4 -6 6 4 9 12 6 17 -8 12 75 150 86 143 5 -3 6 1 3 9 -3 8 0 18 7
23 8 5 10 3 4 -6 -5 -9 -4 -11 4 -6 6 4 9 12 6 17 -8 12 75 150 86 143 5 -3 6
1 3 9 -3 8 0 18 7 23 8 5 10 3 4 -6 -5 -9 -4 -11 4 -6 6 4 9 12 6 17 -8 12 45
100 56 93 5 -3 6 1 3 9 -3 8 0 18 7 23 8 5 10 3 4 -6 -5 -9 -4 -11 4 -6 6 4 9
12 6 17 -8 12 45 100 56 93 5 -3 6 1 3 9 -3 8 0 18 7 23 8 5 10 3 4 -6 -5 -9
-4 -11 4 -6 6 4 9 12 6 17 -8 12 75 150 86 143 5 -3 6 1 3 9 -3 8 0 18 7 23 8
5 10 3 4 -6 -5 -9 -4 -11 4 -6 6 4 9 12 6 17 -8 12 75 150 86 143 5 -3 6 1 3
9 -3 8 0 18 7 23 8 5 10 3 4 -6 -5 -9 -4 -11 4 -6 6 4 9 12 6 17 -8 12 45 100
56 93 5 -3 6 1 3 9 -3 8 0 18 7 23 8 5 10 3 4 -6 -5 -9 -4 -11 4 -6 6 4 9 12
6 17 -9 13 45 100 57 92 7 -3 8 -1 4 5 -8 14 93 184 105 176 5 -3 6 1 3 9 -3
8 0 18 7 23 8 5 10 3 4 -6 -5 -9 -4 -11 4 -6 6 4 9 12 6 17 -8 12 75 150 86
143 5 -3 6 1 3 9 -3 8 0 18 7 23 8 5 10 3 4 -6 -5 -9 -4 -11 4 -6 6 4 9 12 6
17 -6 9 61 129 71 129 3 0 2 -6 -1 -12 -4 -7 1 -4 10 7 27 32 40 65 15 35 -18
-21 -17 -17 4 20 15 25 31 44 37 42 6 -1 8 2 4 8 -8 12 95 181 106 174 5 -3 6
1 3 9 -3 8 0 18 7 23 8 5 10 3 4 -6 -5 -9 -4 -11 4 -6 6 4 9 12 6 17 -8 12 75
150 86 143 5 -3 6 1 3 9 -3 8 0 18 7 23 8 5 10 3 4 -6 -5 -9 -4 -11 4 -6 6 4
9 12 6 17 -6 9 61 129 71 129 3 0 2 -6 -1 -12 -4 -7 1 -4 10 7 27 32 40 65 15
35 -18 -21 -17 -17 4 20 15 25 31 44 37 42 6 -1 8 2 4 8 -8 12 95 181 106 174
5 -3 6 1 3 9 -3 8 0 18 7 23 8 5 10 3 4 -6 -5 -9 -4 -11 4 -6 6 4 9 12 6 17
-8 12 75 150 86 143 5 -3 6 1 3 9 -3 8 0 18 7 23 8 5 10 3 4 -6 -5 -9 -4 -11
4 -6 6 4 9 12 6 17 -3 5 6 29 20 54 28 47 44 61 25 23 -10 -21 -10 -22 3 -5 8
10 13 26 12 35 -14 69 -14 83 -2 76 6 -4 1 5 -13 20 l-26 26 -2309 3 -2310 2
-30 -28z m4263 -162 c-3 -3 -861 -5 -1908 -5 -1047 0 -1901 -2 -1898 -5 3 -3
852 -5 1886 -5 1035 0 1882 -2 1882 -5 0 -2 -10 -9 -21 -16 -17 -8 -20 -8 -14
1 5 8 3 11 -6 8 -8 -3 -13 -11 -11 -17 1 -7 -2 -10 -7 -6 -15 9 -73 -24 -65
-37 4 -7 3 -8 -4 -4 -16 10 -74 -22 -66 -36 4 -7 3 -8 -4 -4 -16 10 -74 -22
-66 -36 4 -7 3 -8 -4 -4 -16 10 -74 -22 -66 -36 4 -7 3 -8 -4 -4 -16 10 -54
-12 -46 -26 4 -7 3 -8 -4 -4 -16 10 -74 -22 -66 -36 4 -7 3 -8 -4 -4 -15 9
-75 -22 -67 -34 4 -6 -1 -7 -11 -3 -12 4 -15 3 -10 -5 5 -8 1 -10 -10 -5 -11
4 -15 2 -11 -4 4 -6 -1 -10 -11 -9 -9 0 -16 -5 -14 -12 1 -8 -2 -11 -7 -7 -15
9 -73 -24 -65 -37 4 -7 3 -8 -4 -4 -16 10 -74 -22 -66 -36 4 -7 3 -8 -4 -4
-15 9 -75 -22 -67 -34 4 -6 -395 -10 -1034 -10 l-1039 0 -121 66 c-68 37 -126
62 -132 58 -7 -4 -9 -3 -5 4 8 13 -200 126 -216 116 -7 -4 -8 -3 -4 4 8 14
-90 66 -106 56 -7 -4 -8 -3 -4 4 8 14 -90 66 -106 56 -6 -4 -8 -3 -5 4 4 6
-24 27 -68 51 -78 43 -90 48 -79 30 6 -10 -33 8 -66 30 -10 7 596 11 1909 11
1058 0 1922 -2 1919 -5z m-3928 -156 c0 -5 4 -8 9 -5 5 3 8 0 7 -7 0 -6 4 -12
9 -12 6 0 9 4 7 8 -1 4 7 3 18 -3 25 -13 26 -21 3 -14 -10 3 -6 -2 10 -11 15
-9 33 -13 39 -9 7 4 8 3 4 -4 -8 -14 70 -56 86 -46 7 5 8 3 3 -6 -6 -10 -4
-12 9 -7 10 4 15 3 11 -3 -8 -12 92 -63 107 -54 7 4 8 3 4 -4 -8 -14 90 -66
106 -56 7 4 8 3 4 -4 -8 -14 90 -66 106 -56 7 4 8 3 4 -4 -8 -14 70 -56 86
-46 7 5 8 3 3 -6 -6 -10 -4 -12 9 -7 10 4 15 3 11 -3 -8 -12 72 -53 87 -44 7
5 8 3 3 -6 -6 -10 -4 -12 9 -7 9 4 15 3 11 -2 -3 -5 15 -20 39 -34 25 -14 46
-21 48 -15 2 6 9 -2 16 -18 12 -25 12 -26 -4 -13 -16 13 -16 12 -4 -8 8 -12
18 -21 22 -20 4 1 19 -18 34 -43 21 -38 22 -41 4 -20 l-22 25 18 -32 c10 -17
22 -31 28 -30 6 1 10 -6 10 -15 -1 -10 2 -16 6 -13 11 7 81 -115 74 -127 -4
-6 -2 -8 3 -5 6 4 33 -31 62 -80 29 -47 44 -80 35 -72 -16 13 -16 12 -4 -8 8
-12 17 -20 21 -17 4 2 30 -35 58 -83 29 -47 44 -80 35 -72 -16 13 -16 12 -5
-8 6 -13 16 -22 21 -20 5 1 21 -18 36 -43 21 -37 22 -41 4 -20 -25 30 -12 -3
15 -35 9 -11 13 -14 9 -6 -5 10 -3 12 5 7 7 -5 10 -15 7 -23 -3 -8 -2 -11 4
-8 5 3 14 -5 21 -17 11 -20 10 -22 -3 -10 -14 11 -14 8 1 -22 9 -20 20 -35 24
-36 4 0 3 9 -3 20 -6 11 -9 20 -6 20 9 0 57 -91 51 -99 -3 -5 0 -13 6 -17 8
-4 9 -3 5 4 -4 7 -5 12 -2 12 11 0 96 -152 90 -162 -4 -6 -3 -8 3 -5 13 8 116
-160 107 -174 -3 -5 -1 -8 5 -7 6 2 22 -17 37 -42 21 -37 22 -41 4 -20 -25 30
-12 -3 15 -35 9 -11 13 -14 9 -6 -5 10 -3 12 5 7 7 -5 10 -15 7 -23 -3 -8 -2
-11 4 -8 5 3 14 -5 21 -17 11 -20 10 -22 -3 -10 -14 11 -14 8 1 -22 9 -20 20
-35 24 -36 4 0 2 10 -4 23 -17 33 4 8 31 -37 13 -22 18 -36 11 -32 -10 7 -11
4 -2 -13 7 -11 14 -21 17 -21 3 0 2 5 -1 10 -3 6 -4 10 -1 10 2 0 25 -34 50
-75 l46 -76 0 -472 0 -472 -30 48 c-17 26 -28 52 -25 58 4 5 2 8 -4 7 -14 -4
-193 291 -185 304 4 6 3 8 -3 5 -13 -8 -116 160 -107 175 4 6 3 8 -3 5 -13 -8
-86 110 -77 124 3 5 1 8 -5 7 -14 -4 -193 291 -185 304 4 6 2 8 -3 5 -13 -8
-116 161 -107 175 4 6 2 8 -3 5 -13 -8 -86 111 -77 125 4 6 2 8 -3 5 -13 -8
-97 129 -88 142 3 5 0 13 -6 17 -8 4 -9 3 -5 -4 4 -7 5 -12 2 -12 -11 0 -96
152 -90 162 4 6 3 8 -3 5 -13 -8 -116 161 -107 175 4 6 2 8 -3 5 -13 -8 -86
111 -77 125 4 6 2 8 -3 5 -13 -8 -97 129 -88 142 3 5 0 13 -6 17 -8 4 -9 3 -5
-4 4 -7 5 -12 2 -12 -10 0 -107 170 -101 179 3 5 0 13 -6 17 -8 4 -9 3 -5 -4
4 -7 5 -12 2 -12 -11 0 -96 152 -90 162 4 6 2 8 -3 5 -13 -8 -86 111 -77 125
4 6 3 8 -3 5 -12 -8 -207 309 -198 322 3 5 0 13 -6 17 -8 4 -9 3 -5 -4 4 -7 5
-12 2 -12 -11 0 -96 152 -90 162 4 6 2 8 -3 5 -6 -4 -20 9 -32 28 -11 19 -16
35 -11 35 6 0 10 -5 10 -11z m3989 -39 c-30 -49 -50 -70 -29 -30 6 11 7 20 3
20 -4 0 2 7 13 15 17 14 17 14 -10 3 -15 -7 -23 -14 -17 -16 8 -3 3 -20 -14
-50 -23 -41 -24 -44 -5 -22 l22 25 -17 -30 c-29 -49 -42 -65 -46 -60 -3 2 -11
-6 -18 -18 -13 -20 -13 -21 3 -8 9 8 -6 -25 -35 -72 -29 -49 -56 -84 -62 -80
-5 3 -7 1 -3 -5 9 -14 -64 -133 -77 -125 -6 3 -7 1 -3 -5 4 -7 -9 -39 -30 -72
-35 -57 -57 -82 -34 -40 19 35 3 21 -20 -17 -17 -29 -18 -34 -4 -22 16 13 16
12 6 -6 -6 -11 -18 -29 -27 -40 -16 -19 -16 -19 -4 5 17 36 -4 12 -30 -35
l-23 -40 22 25 22 25 -17 -30 c-29 -49 -42 -65 -46 -60 -3 2 -11 -6 -18 -18
-13 -20 -13 -21 3 -8 9 8 -6 -25 -35 -72 -29 -49 -56 -84 -62 -80 -5 3 -7 1
-3 -5 8 -13 -63 -134 -75 -126 -5 3 -7 -1 -4 -8 5 -13 -68 -132 -76 -123 -3 2
-11 -6 -18 -18 -13 -21 -13 -21 4 -7 17 14 17 14 7 -5 -33 -59 -99 -155 -103
-151 -3 3 -11 -5 -18 -17 -13 -20 -13 -21 3 -8 9 8 -6 -25 -35 -72 -29 -49
-56 -84 -62 -80 -5 3 -7 1 -3 -5 9 -14 -94 -183 -107 -175 -5 3 -7 1 -3 -5 3
-6 -3 -27 -15 -46 -22 -38 -37 -50 -19 -16 19 35 3 21 -20 -17 -17 -29 -18
-34 -4 -22 16 13 16 12 5 -9 -7 -12 -17 -20 -23 -16 -6 4 -8 3 -4 -4 7 -12
-62 -134 -73 -128 -4 3 -13 -5 -21 -17 -12 -20 -12 -21 4 -7 10 8 -3 -20 -29
-63 -25 -42 -49 -77 -51 -77 -3 0 -2 5 2 12 4 7 3 8 -5 4 -6 -4 -9 -12 -6 -17
9 -13 -105 -200 -118 -192 -5 3 -7 1 -3 -5 3 -6 -3 -27 -15 -46 -22 -38 -37
-50 -19 -16 19 35 3 21 -20 -17 -17 -29 -18 -34 -4 -22 16 13 16 12 5 -9 -7
-12 -17 -20 -23 -16 -6 4 -8 3 -4 -4 7 -12 -62 -134 -73 -128 -4 3 -13 -5 -21
-17 -12 -20 -12 -21 4 -7 10 8 -3 -20 -29 -63 -25 -42 -49 -77 -51 -77 -3 0
-2 5 2 12 4 7 3 8 -5 4 -6 -4 -9 -12 -6 -17 9 -13 -105 -200 -118 -192 -6 3
-7 1 -3 -5 4 -6 -7 -33 -24 -59 l-30 -48 0 472 0 471 51 86 c29 48 56 83 62
79 5 -3 7 -1 3 5 -8 13 63 134 75 126 5 -3 6 1 3 9 -3 8 0 18 7 23 8 5 10 3 5
-7 -4 -8 0 -5 9 6 27 32 40 65 15 35 -18 -21 -17 -17 4 20 15 25 31 44 37 42
6 -1 8 2 4 8 -8 14 95 181 108 173 6 -3 7 -1 3 5 -9 14 94 183 107 175 6 -3 7
-1 3 5 -6 10 79 162 90 162 3 0 2 -6 -1 -12 -4 -7 1 -4 10 7 27 32 40 65 15
35 -18 -21 -17 -17 4 20 15 25 31 44 37 42 6 -1 8 2 4 8 -9 14 14 52 27 44 6
-4 8 -3 4 4 -9 14 64 133 77 125 5 -3 7 -1 3 5 -9 14 94 183 107 175 6 -3 7
-1 3 5 -6 10 79 162 90 162 3 0 2 -4 -1 -10 -3 -5 -4 -10 -1 -10 3 0 10 10 17
21 9 17 8 20 -2 13 -11 -7 11 36 48 91 19 28 16 9 -3 -23 l-17 -27 24 27 c13
14 140 92 282 173 155 89 255 151 251 157 -4 7 -2 8 4 4 14 -8 282 141 279
155 -1 7 57 49 80 58 2 1 -11 -21 -28 -49z m-1950 -298 c566 2 1027 0 1024 -4
-2 -5 -467 -8 -1032 -8 -914 0 -1029 2 -1047 16 -18 15 -18 15 3 4 15 -7 339
-9 1052 -8z m-39 -212 c700 0 885 2 892 12 17 28 7 -3 -13 -36 -12 -20 -26
-33 -32 -29 -5 3 -7 1 -3 -5 9 -14 -64 -133 -77 -125 -6 3 -7 1 -3 -5 4 -7 -9
-39 -30 -72 -35 -57 -57 -82 -34 -40 19 35 3 21 -20 -17 -17 -29 -18 -34 -4
-22 16 13 16 12 5 -9 -7 -12 -16 -20 -21 -17 -6 3 -7 0 -4 -8 3 -8 0 -18 -7
-23 -8 -5 -10 -3 -5 7 4 8 0 5 -9 -6 -9 -11 -21 -29 -26 -40 -8 -15 -4 -13 11
5 22 25 22 24 -1 -15 -24 -44 -49 -74 -30 -37 19 36 5 25 -19 -15 -16 -27 -17
-33 -5 -23 10 8 -4 -22 -30 -65 -47 -78 -79 -123 -56 -77 19 36 5 25 -19 -15
-15 -26 -17 -33 -5 -23 9 7 -7 -26 -36 -73 -29 -49 -56 -84 -62 -80 -5 3 -7 1
-3 -5 9 -14 -64 -133 -77 -125 -5 3 -7 1 -3 -5 5 -9 -60 -132 -71 -132 -2 0 1
9 7 20 19 35 3 21 -20 -17 -16 -27 -17 -33 -5 -23 10 8 -4 -22 -30 -65 -47
-78 -79 -123 -56 -77 19 36 5 25 -19 -15 -16 -27 -17 -33 -5 -23 9 8 -3 -19
-27 -58 -23 -40 -45 -72 -48 -72 -11 0 -71 110 -65 119 3 5 0 13 -6 17 -8 4
-9 3 -5 -4 4 -7 5 -12 2 -12 -11 0 -96 152 -90 162 4 6 3 8 -3 5 -13 -8 -116
161 -107 175 4 6 2 8 -3 5 -13 -8 -86 111 -77 125 4 6 2 8 -3 5 -13 -8 -97
129 -88 142 3 5 0 13 -6 17 -8 4 -9 3 -5 -4 4 -7 5 -12 2 -12 -11 0 -96 152
-90 162 4 6 3 8 -3 5 -13 -8 -116 161 -107 175 4 6 2 8 -3 5 -13 -8 -86 111
-77 125 4 6 2 8 -4 5 -5 -4 -22 14 -38 40 -15 27 -34 59 -43 73 -11 17 -12 22
-3 16 11 -7 12 -4 3 13 -7 11 -14 21 -17 21 -3 0 -2 -4 1 -10 3 -5 4 -10 1
-10 -6 0 -66 98 -66 108 0 4 4 1 8 -6 7 -10 192 -12 892 -12z m443 13 c-244
-2 -642 -2 -885 0 -244 1 -45 2 442 2 487 0 686 -1 443 -2z"/>
</g>
</svg>
