<?xml version="1.0" standalone="no"?>
<!DOCTYPE svg PUBLIC "-//W3C//DTD SVG 20010904//EN"
 "http://www.w3.org/TR/2001/REC-SVG-20010904/DTD/svg10.dtd">
<svg version="1.0" xmlns="http://www.w3.org/2000/svg"
 width="980.000000pt" height="886.000000pt" viewBox="0 0 980.000000 886.000000"
 preserveAspectRatio="xMidYMid meet">
<metadata>
Created by potrace 1.15, written by Peter Selinger 2001-2017
</metadata>
<g transform="translate(0.000000,886.000000) scale(0.100000,-0.100000)"
fill="#000000" stroke="none">
<path d="M500 8834 c-180 -47 -348 -182 -427 -344 -80 -162 -74 99 -71 -3115
l3 -2870 28 -82 c72 -212 250 -379 463 -433 76 -20 115 -20 1991 -20 l1913 0
0 -579 0 -579 -382 -4 -383 -4 -80 -27 c-194 -65 -339 -219 -390 -414 -10 -38
-15 -107 -15 -205 l0 -148 1766 0 1766 0 -4 163 c-4 143 -8 171 -31 236 -64
181 -205 315 -397 377 -48 15 -106 18 -463 22 l-407 4 2 576 3 577 1945 5
1945 5 62 21 c204 70 363 228 430 427 l28 82 0 2900 0 2900 -23 75 c-36 114
-86 196 -172 281 -84 84 -193 146 -305 174 -52 13 -560 15 -4400 14 -3743 0
-4348 -2 -4395 -15z m8719 -390 c64 -19 131 -77 163 -142 l23 -47 3 -2327 2
-2328 -4505 0 -4505 0 0 2321 c0 1781 3 2331 12 2362 18 61 92 135 158 157 54
19 165 19 4326 20 3848 0 4276 -2 4323 -16z m189 -5561 c-3 -310 -4 -319 -26
-365 -13 -26 -44 -66 -69 -88 -88 -77 335 -70 -4413 -70 -4728 0 -4324 -6
-4409 67 -24 20 -54 60 -67 87 -23 50 -24 56 -24 369 l0 317 4506 0 4505 0 -3
-317z"/>
<path d="M4838 3036 c-84 -23 -157 -89 -187 -169 -6 -16 -11 -59 -11 -96 0
-203 202 -329 386 -242 101 48 154 134 154 250 0 99 -72 208 -161 245 -53 22
-128 27 -181 12z"/>
</g>
</svg>
